<?xml version="1.0" standalone="no"?><!DOCTYPE svg PUBLIC "-//W3C//DTD SVG 1.1//EN" "http://www.w3.org/Graphics/SVG/1.1/DTD/svg11.dtd"><svg t="1637634343344" class="icon" viewBox="0 0 1027 1024" version="1.1" xmlns="http://www.w3.org/2000/svg" p-id="1425" xmlns:xlink="http://www.w3.org/1999/xlink" width="32.09375" height="32"><defs><style type="text/css"></style></defs><path d="M758.23613308 933.875L266.04863254 933.875c-21.09375 0-35.15625027-14.06250027-35.15625028-35.15625027l0-316.40625L125.42363308 582.31249973c-14.06250027 0-28.12499973-7.03124973-31.640625-21.09375C86.75175754 547.15625027 90.26738281 533.09375 100.81425781 522.546875l386.71874973-421.875c14.06250027-14.06250027 38.67187473-14.06250027 52.734375 0l386.71874973 421.875c10.546875 10.546875 10.546875 24.60937527 7.03124972 38.67187473C926.98613308 575.28125 912.92363281 582.31249973 898.86113254 582.31249973l-105.46875 0 0 316.40625C793.39238254 919.81249973 779.32988308 933.875 758.23613308 933.875zM301.20488281 863.56250027l421.875 0 0-316.40625c0-21.09375 14.06250027-35.15625027 35.15625027-35.15625027l59.76562473 0L512.14238281 178.01562527 206.28300781 512 266.04863254 512c21.09375 0 35.15625027 14.06250027 35.15625027 35.15625027L301.20488281 863.56250027z" p-id="1426"></path><path d="M582.45488254 933.875l-140.62500027 0c-21.09375 0-35.15625027-14.06250027-35.15625028-35.15625027l0-210.9375c0-21.09375 14.06250027-35.15625027 35.15625027-35.15625028l140.62500028 0c21.09375 0 35.15625027 14.06250027 35.15625027 35.15625028l0 210.9375C617.61113281 919.81249973 603.54863254 933.875 582.45488254 933.875zM476.98613254 863.56250027l70.31249972 0 0-140.62500027-70.31249972 0L476.98613254 863.56250027z" p-id="1427"></path><path d="M512.14238281 547.15625027c-59.76562473 0-105.46875-45.70312527-105.46875-105.46875s45.70312527-105.46875 105.46875-105.46875 105.46875 45.70312527 105.46875 105.46875S571.90800754 547.15625027 512.14238281 547.15625027zM512.14238281 406.53125c-21.09375 0-35.15625027 14.06250027-35.15625027 35.15625027s14.06250027 35.15625027 35.15625027 35.15625028 35.15625027-14.06250027 35.15625027-35.15625028S533.23613281 406.53125 512.14238281 406.53125z" p-id="1428"></path></svg>