<?xml version="1.0" standalone="no"?><!DOCTYPE svg PUBLIC "-//W3C//DTD SVG 1.1//EN" "http://www.w3.org/Graphics/SVG/1.1/DTD/svg11.dtd"><svg t="1637635451646" class="icon" viewBox="0 0 1024 1024" version="1.1" xmlns="http://www.w3.org/2000/svg" p-id="1185" xmlns:xlink="http://www.w3.org/1999/xlink" width="32" height="32"><defs><style type="text/css"></style></defs><path d="M729.0403666 912.40917471H292.11100948c-89.60366953-0.10733906-162.20642168-72.68532099-162.33853272-162.27247764v-494.8348623C129.87155938 165.68990791 202.49082529 93.06238555 292.11100948 92.96330293h436.92935713c89.62844062 0.06605508 162.28899053 72.69357832 162.38807401 162.3302754v494.83486229c-0.18990791 89.58715576-72.80091739 162.15688037-162.38807401 162.28073409zM292.11100948 139.34220224c-64.02385283 0.06605508-115.90183477 51.94403701-115.96788985 115.95963253v494.83486231c0.13211016 63.96605508 51.99357833 115.77798193 115.96788985 115.844037h436.92935713c63.96605508-0.06605508 115.81926592-51.87798193 115.95963339-115.84403701v-494.8348623c-0.07431153-64.01559638-51.94403701-115.89357833-115.95963339-115.95963253H292.11100948z" p-id="1186"></path><path d="M674.40458691 232.08348623H576.54403701c-51.16788984 0.09908261-92.59266094 41.57339414-92.65871602 92.74128398v73.03211016c0.03302754 51.19266094 41.46605508 92.69174355 92.65871602 92.79082617h97.86054991c51.12660586 0 92.73302754-41.59816523 92.79908261-92.79082617v-73.03211016c-0.06605508-51.21743115-41.58990791-92.70825645-92.79908261-92.74128398z m46.42844062 165.77339414a46.43669707 46.43669707 0 0 1-46.42844062 46.42844062H576.54403701c-25.48073408 0-46.31284424-20.83211016-46.31284424-46.42844062v-73.03211016a46.43669707 46.43669707 0 0 1 46.31284424-46.37064199h97.86054991a46.42844063 46.42844063 0 0 1 46.42844062 46.37064199v73.03211016zM367.91743115 278.45412823H278.3798167a23.21834854 23.21834854 0 1 1 0-46.370642h89.54587177a23.19357832 23.19357832 0 1 1-0.00825732 46.37064199zM367.91743115 444.68165146H278.3798167a23.20183477 23.20183477 0 1 1 0-46.37064198h89.54587177a23.19357832 23.19357832 0 1 1-0.00825732 46.37064198zM743.99357833 610.93394492H278.3798167a23.21834854 23.21834854 0 0 1-0.03302754-46.43669707h465.65504561a23.21009209 23.21009209 0 1 1 0.02477109 46.43669707h-0.03302754zM576.54403701 777.12844062H278.3798167a23.21834854 23.21834854 0 1 1 0-46.37064286h298.17247676a23.21009209 23.21009209 0 1 1-0.00825645 46.37064287z" p-id="1187"></path></svg>