<?xml version="1.0" standalone="no"?><!DOCTYPE svg PUBLIC "-//W3C//DTD SVG 1.1//EN" "http://www.w3.org/Graphics/SVG/1.1/DTD/svg11.dtd"><svg t="1637645095676" class="icon" viewBox="0 0 1024 1024" version="1.1" xmlns="http://www.w3.org/2000/svg" p-id="1592" xmlns:xlink="http://www.w3.org/1999/xlink" width="32" height="32"><defs><style type="text/css"></style></defs><path d="M641.77622436 408.63484653h266.38983083c36.86824594 0 66.63097494 29.69569532 66.63097493 66.63097494v432.90023372a66.49690756 66.49690756 0 0 1-66.63097493 66.63097493h-432.90023372a66.49690756 66.49690756 0 0 1-66.63097494-66.63097493v-266.38983083h133.26194831c55.43643393 0 99.87942795-44.71112722 99.87942952-99.87942952v-133.26194831z m-599.41063819-299.6382854c0-36.86824594 29.6286632-66.63097494 66.56394125-66.63097496h432.96726742c36.80121225 0 66.56394125 29.6286632 66.56394126 66.56394125v432.96726742a66.49690756 66.49690756 0 0 1-66.56394126 66.56394126H108.92952742a66.49690756 66.49690756 0 0 1-66.56394125-66.56394126V108.92952742z m133.1949162 287.43824833h48.59905025v-25.74073861h70.11670049v123.07290649h51.54850935V370.69407085h71.59142925v21.45061501h52.95620756V228.98594112H345.75773033v-35.72868094c0-10.52420876 1.40769665-19.57368717 4.35715576-27.21546897a10.99343993 10.99343993 0 0 0 1.34066291-4.29012204c0-0.93846389-3.35165815-1.87692938-9.98794229-2.88242698h-48.66608395v70.11669893H175.49346867v167.44886834z m48.59905025-127.3630301h70.11670049v63.01118357H224.22658631v-63.01118357z m193.25663909 63.01118357H345.75773033v-63.01118357h71.59142926v63.01118357z m212.0929619 507.77628901l20.10995203-55.77160084h104.43768322l20.04291991 55.77160084h57.17929591l-92.97501053-264.71400252h-67.30130721l-95.85743752 264.78103467h54.43093631z m34.38801798-100.14756116l38.61110791-113.01793046h1.47472879l35.72868249 113.01793046h-75.81451919z m244.2688836-430.9562722h-66.56394127c0-73.60242447-59.65952385-133.1949162-133.1949162-133.19491621v-66.63097495a199.75885745 199.75885745 0 0 1 199.75885747 199.82589116zM108.92952742 708.40719772h66.63097495c0 73.53539076 59.65952385 133.1949162 133.19491621 133.1949162v66.56394127a199.75885745 199.75885745 0 0 1-199.75885745-199.75885747z" fill="#E62E2E" p-id="1593"></path></svg>